<?xml version="1.0" standalone="no"?>
<!DOCTYPE svg PUBLIC "-//W3C//DTD SVG 20010904//EN"
 "http://www.w3.org/TR/2001/REC-SVG-20010904/DTD/svg10.dtd">
<svg version="1.0" xmlns="http://www.w3.org/2000/svg"
 width="700.000000pt" height="700.000000pt" viewBox="0 0 700.000000 700.000000"
 preserveAspectRatio="xMidYMid meet">
<metadata>
Created by potrace 1.11, written by Peter Selinger 2001-2013
</metadata>
<g transform="translate(0.000000,700.000000) scale(0.100000,-0.100000)"
fill="#000000" stroke="none">
<path d="M1580 6795 l0 -204 978 -4 977 -3 120 -27 c504 -111 925 -394 1202
-807 64 -96 183 -312 227 -415 150 -348 163 -758 35 -1121 -59 -167 -194 -411
-321 -581 -258 -345 -634 -597 -1050 -704 -206 -52 -192 -51 -895 -56 l-663
-4 0 -1435 0 -1434 210 0 210 0 0 1225 0 1225 373 0 c389 0 519 7 702 40 581
103 1111 435 1467 920 119 163 276 445 342 616 84 218 117 390 123 649 9 370
-49 629 -217 960 -169 333 -297 513 -517 726 -297 287 -644 479 -1043 579
-241 60 -237 60 -1294 60 l-966 0 0 -205z"/>
<path d="M2880 2155 l0 -205 498 0 c273 0 515 -5 536 -10 44 -10 139 -96 154
-139 12 -36 -4 -80 -56 -146 -77 -99 -55 -95 -559 -95 -241 0 -468 -3 -505 -7
l-68 -6 0 -203 0 -204 607 0 607 0 41 -44 c52 -56 99 -149 98 -192 -1 -44 -35
-110 -83 -162 l-39 -42 -671 0 -670 0 0 -350 0 -350 205 0 205 0 0 140 0 140
469 0 c275 0 491 4 522 10 137 26 266 122 366 274 74 113 103 195 110 312 5
87 3 112 -16 175 -36 118 -112 246 -209 351 l-43 46 25 40 c51 80 77 162 83
257 7 104 -8 171 -60 270 -43 81 -202 241 -282 282 -120 62 -128 63 -724 63
l-541 0 0 -205z"/>
</g>
</svg>
