<svg width="249.99999999999997" height="249.99999999999997" xmlns="http://www.w3.org/2000/svg" xmlns:xlink="http://www.w3.org/1999/xlink">
 <defs>
  <linearGradient y2="0" x2="1" y1="0" x1="0" id="svg_gradient">
   <stop offset="0" stop-color="#e63460"/>
   <stop offset="1" stop-color="#fe5f50"/>
  </linearGradient>
 </defs>
 <g>
  <title>background</title>
  <rect fill="none" id="canvas_background" height="252" width="252" y="-1" x="-1"/>
  <g display="none" overflow="visible" y="0" x="0" height="100%" width="100%" id="canvasGrid">
   <rect fill="url(#gridpattern)" stroke-width="0" y="0" x="0" height="100%" width="100%"/>
  </g>
 </g>
 <g>
  <title>Layer 1</title>
  <defs>
   <path id="svg_8" d="m210,460l0,-130c22.66,0 36.82,0 42.48,0c37.17,0 71.5,-19.87 90.01,-52.1c5.5,-9.58 -3.11,5.41 3.59,-6.26c14.87,-25.88 15.26,-57.62 1.03,-83.86c-6.55,-12.09 1.76,3.24 -3.53,-6.51c-18.02,-33.25 -52.81,-53.96 -90.63,-53.96c-11.06,0 -38.71,0 -82.95,0"/>
   <path id="svg_7" d="m233.39,394.19c25.16,0 40.89,0 47.18,0c5.24,0 10.24,-2.14 13.86,-5.93c5.03,-5.28 7.6,-10.18 7.72,-14.7c0.14,-5.02 -2.78,-10.02 -8.76,-15c-2.99,-2.49 -6.75,-3.85 -10.64,-3.85c-6.58,0 -23.03,0 -49.36,0"/>
   <path id="svg_6" d="m238,460l0,-23.97c28.99,0.05 47.12,0.08 54.36,0.09c3.53,0.01 6.9,-1.41 9.36,-3.93c5.39,-5.52 8.15,-10.88 8.28,-16.06c0.13,-5.2 -2.63,-11.05 -8.28,-17.53c-2.44,-2.8 -5.98,-4.41 -9.69,-4.41c-7.2,0 -25.21,0 -54.03,0"/>
  </defs>
   <g stroke="null" transform="matrix(0.6323201625661279,0,0,0.6323201625661279,-786.2393381772439,-823.9550632661224) " id="svg_10">
	   <use x="1177.347248" y="1207.095868" id="svg_14" stroke-width="20" fill-opacity="0" xlink:href="#svg_8" stroke="url(#svg_gradient)"/>
	   <use x="1177.347248" y="1207.095868" id="svg_17" stroke-width="20" fill-opacity="0" xlink:href="#svg_7" stroke="url(#svg_gradient)"/>
	   <use x="1177.347248" y="1207.095868" id="svg_20" stroke-width="20" fill-opacity="0" xlink:href="#svg_6" stroke="url(#svg_gradient)"/>
  </g>
 </g>
</svg>