<?xml version="1.0" encoding="UTF-8" standalone="no"?>
<!DOCTYPE svg PUBLIC "-//W3C//DTD SVG 1.1//EN" "http://www.w3.org/Graphics/SVG/1.1/DTD/svg11.dtd">
<svg version="1.1" xmlns="http://www.w3.org/2000/svg" xmlns:xlink="http://www.w3.org/1999/xlink" preserveAspectRatio="xMidYMid meet" viewBox="0 0 640 640" width="256" height="256"><defs><path d="M210 460L210 330C232.66 330 246.82 330 252.48 330C289.65 330 323.98 310.13 342.49 277.9C347.99 268.32 339.38 283.31 346.08 271.64C360.95 245.76 361.34 214.02 347.11 187.78C340.56 175.69 348.87 191.02 343.58 181.27C325.56 148.02 290.77 127.31 252.95 127.31C241.89 127.31 214.24 127.31 170 127.31" id="byAYKJNCU"></path><path d="M233.39 394.19C258.55 394.19 274.28 394.19 280.57 394.19C285.81 394.19 290.81 392.05 294.43 388.26C299.46 382.98 302.03 378.08 302.15 373.56C302.29 368.54 299.37 363.54 293.39 358.56C290.4 356.07 286.64 354.71 282.75 354.71C276.17 354.71 259.72 354.71 233.39 354.71" id="a49XHP2WiH"></path><path d="M238 460L238 436.03C266.99 436.08 285.12 436.11 292.36 436.12C295.89 436.13 299.26 434.71 301.72 432.19C307.11 426.67 309.87 421.31 310 416.13C310.13 410.93 307.37 405.08 301.72 398.6C299.28 395.8 295.74 394.19 292.03 394.19C284.83 394.19 266.82 394.19 238 394.19" id="aWgUlulF0"></path></defs><g><g><g><g><use xlink:href="#byAYKJNCU" opacity="1" fill-opacity="0" stroke="#263238" stroke-width="21" stroke-opacity="1"></use></g></g><g><g><use xlink:href="#a49XHP2WiH" opacity="1" fill-opacity="0" stroke="#263238" stroke-width="10" stroke-opacity="1"></use></g></g><g><g><use xlink:href="#aWgUlulF0" opacity="1" fill-opacity="0" stroke="#263238" stroke-width="10" stroke-opacity="1"></use></g></g></g></g></svg>